# xmcd CD database file
#
# Track frame offsets:
#	183
#	15170
#	34720
#	52858
#	68833
#	84520
#	102445
#	120145
#	135620
#	150283
#
# Disc length: 2269 seconds
#
# Revision: 2
# Processed by: cddbd v1.5.2PL0 Copyright (c) Steve Scherf et al.
# Submitted via: CDex 1.51
#
DISCID=6508db0a
DTITLE=Pepe Ahlqvist - H.A.R.P.
DYEAR=1989
DGENRE=Blues
TTITLE0=Back to the river
TTITLE1=Ain't doin'  too bad
TTITLE2=Lock on the door
TTITLE3=Rhythm Guitar
TTITLE4=Eeny meeny miny mo
TTITLE5=My Babe
TTITLE6=One more Mile
TTITLE7=Losing Game
TTITLE8=Can't go on
TTITLE9=Quit pickin' on me
EXTD=The Harp is:\n\nPepe Ahlqvist\tvocals and harmonica\nTimo Pratskin\tkeyboards\nJarmo Nikku\tguitars\nJuha Tikka\tbass\nAnssi Nykänen\tdrums\n\nAlso featuring:\n\nEsa Kaartamo\tguitars, melodica and backing vocals\nBilly Carson\tbacking vocals\nMaria Hän
EXTD=ninen\tbacking vocals\nMongo Aaltonen\tpercussion\n\nThe Kallio horns:\n\nSimo Salminen\ttrumpet\nAntero Priha\ttrumpet\nJukka Tuovinen\talto and tenor sax\nSonny Heinilä\ttenor sax\nPepa Päivinen\tbaritone sax\n\nHorn Arrangements by Juha Tikka YEAR:
EXTD=1989
EXTT0=
EXTT1=
EXTT2=
EXTT3=
EXTT4=
EXTT5=
EXTT6=
EXTT7=
EXTT8=
EXTT9=
PLAYORDER=
